<svg xmlns="http://www.w3.org/2000/svg" viewBox="0 0 1024 1024" width="1024" height="1024"><rect width="1024" height="1024" fill="#000000"/><ellipse cx="251.61" cy="430.17" rx="191.38" ry="106.27" fill="rgb(194,196,161)" fill-opacity="0.29" transform="rotate(256.92 251.61 430.17)"/><ellipse cx="372.43" cy="801.57" rx="106.13" ry="70.55" fill="rgb(183,187,150)" fill-opacity="0.29" transform="rotate(127.85 372.43 801.57)"/><ellipse cx="140.65" cy="215.60" rx="212.59" ry="85.75" fill="rgb(180,201,179)" fill-opacity="0.32" transform="rotate(156.42 140.65 215.60)"/><ellipse cx="222.86" cy="348.03" rx="123.80" ry="237.28" fill="rgb(33,35,24)" fill-opacity="0.31" transform="rotate(145.97 222.86 348.03)"/><ellipse cx="332.14" cy="867.73" rx="239.23" ry="60.19" fill="rgb(72,99,47)" fill-opacity="0.13" transform="rotate(167.48 332.14 867.73)"/><ellipse cx="158.98" cy="551.06" rx="229.88" ry="47.83" fill="rgb(124,143,89)" fill-opacity="0.43" transform="rotate(341.53 158.98 551.06)"/><ellipse cx="211.09" cy="417.58" rx="223.54" ry="227.37" fill="rgb(181,198,160)" fill-opacity="0.27" transform="rotate(36.02 211.09 417.58)"/><ellipse cx="381.51" cy="752.59" rx="78.98" ry="222.09" fill="rgb(221,242,176)" fill-opacity="0.45" transform="rotate(291.17 381.51 752.59)"/><ellipse cx="886.90" cy="514.83" rx="170.68" ry="92.51" fill="rgb(123,124,95)" fill-opacity="0.16" transform="rotate(343.78 886.90 514.83)"/><ellipse cx="619.82" cy="680.59" rx="216.66" ry="68.92" fill="rgb(127,159,89)" fill-opacity="0.21" transform="rotate(207.75 619.82 680.59)"/><ellipse cx="844.75" cy="563.45" rx="93.99" ry="88.60" fill="rgb(61,79,41)" fill-opacity="0.20" transform="rotate(238.37 844.75 563.45)"/><ellipse cx="285.91" cy="602.47" rx="121.36" ry="178.25" fill="rgb(138,138,110)" fill-opacity="0.32" transform="rotate(357.55 285.91 602.47)"/><ellipse cx="251.40" cy="188.90" rx="99.97" ry="24.62" fill="rgb(49,80,18)" fill-opacity="0.28" transform="rotate(186.50 251.40 188.90)"/><ellipse cx="233.56" cy="180.56" rx="230.29" ry="47.38" fill="rgb(41,49,29)" fill-opacity="0.35" transform="rotate(221.82 233.56 180.56)"/><ellipse cx="394.72" cy="707.53" rx="33.61" ry="116.39" fill="rgb(35,51,5)" fill-opacity="0.40" transform="rotate(25.73 394.72 707.53)"/><ellipse cx="236.52" cy="611.37" rx="117.28" ry="102.08" fill="rgb(195,227,175)" fill-opacity="0.48" transform="rotate(338.20 236.52 611.37)"/><path d="M 615.88 111.90 Q 764.19 184.82 450.01 952.84" fill="none" stroke="rgb(129,129,129)" stroke-opacity="0.48" stroke-width="5.41" stroke-linecap="round"/><path d="M 546.59 788.12 Q 266.73 762.41 596.53 514.70" fill="none" stroke="rgb(181,181,181)" stroke-opacity="0.37" stroke-width="7.25" stroke-linecap="round"/><path d="M 934.58 494.97 Q 665.96 711.02 251.29 859.94" fill="none" stroke="rgb(215,215,215)" stroke-opacity="0.33" stroke-width="1.72" stroke-linecap="round"/><path d="M 27.39 892.53 Q 787.42 923.27 144.54 228.58" fill="none" stroke="rgb(166,166,166)" stroke-opacity="0.53" stroke-width="2.09" stroke-linecap="round"/><path d="M 791.32 591.24 Q 6.33 629.69 697.94 897.15" fill="none" stroke="rgb(198,198,198)" stroke-opacity="0.42" stroke-width="4.16" stroke-linecap="round"/><path d="M 629.78 953.52 Q 518.53 188.48 728.85 1008.75" fill="none" stroke="rgb(209,209,209)" stroke-opacity="0.38" stroke-width="7.03" stroke-linecap="round"/><circle cx="150.62" cy="302.90" r="2.98" fill="#ffffff" fill-opacity="0.18"/><circle cx="1015.36" cy="540.37" r="3.86" fill="#ffffff" fill-opacity="0.14"/><circle cx="222.68" cy="656.36" r="2.16" fill="#ffffff" fill-opacity="0.05"/><circle cx="801.38" cy="594.78" r="4.38" fill="#ffffff" fill-opacity="0.15"/><circle cx="804.10" cy="203.18" r="1.62" fill="#ffffff" fill-opacity="0.10"/><circle cx="459.27" cy="582.21" r="2.47" fill="#ffffff" fill-opacity="0.12"/><circle cx="700.11" cy="239.32" r="1.32" fill="#ffffff" fill-opacity="0.08"/><circle cx="483.75" cy="539.16" r="3.38" fill="#ffffff" fill-opacity="0.12"/><circle cx="544.92" cy="1001.88" r="4.42" fill="#ffffff" fill-opacity="0.14"/><circle cx="732.08" cy="441.03" r="3.91" fill="#ffffff" fill-opacity="0.17"/><circle cx="613.07" cy="1004.51" r="0.78" fill="#ffffff" fill-opacity="0.13"/><circle cx="753.52" cy="760.33" r="2.14" fill="#ffffff" fill-opacity="0.17"/><circle cx="90.32" cy="309.77" r="2.05" fill="#ffffff" fill-opacity="0.06"/><circle cx="1000.40" cy="664.37" r="0.96" fill="#ffffff" fill-opacity="0.06"/><circle cx="322.99" cy="521.93" r="3.73" fill="#ffffff" fill-opacity="0.08"/><circle cx="735.03" cy="481.10" r="2.79" fill="#ffffff" fill-opacity="0.13"/><circle cx="58.65" cy="236.54" r="1.27" fill="#ffffff" fill-opacity="0.10"/><circle cx="149.91" cy="235.24" r="2.97" fill="#ffffff" fill-opacity="0.11"/><circle cx="306.88" cy="563.46" r="1.21" fill="#ffffff" fill-opacity="0.12"/><circle cx="495.10" cy="470.12" r="3.51" fill="#ffffff" fill-opacity="0.14"/><circle cx="642.40" cy="681.49" r="2.05" fill="#ffffff" fill-opacity="0.16"/><circle cx="159.44" cy="785.75" r="3.10" fill="#ffffff" fill-opacity="0.06"/><circle cx="745.33" cy="928.68" r="2.93" fill="#ffffff" fill-opacity="0.15"/><circle cx="744.90" cy="533.72" r="1.11" fill="#ffffff" fill-opacity="0.17"/><circle cx="271.65" cy="888.83" r="4.31" fill="#ffffff" fill-opacity="0.13"/><circle cx="465.57" cy="296.85" r="3.95" fill="#ffffff" fill-opacity="0.05"/><circle cx="200.11" cy="180.19" r="0.61" fill="#ffffff" fill-opacity="0.06"/><circle cx="183.49" cy="480.02" r="3.86" fill="#ffffff" fill-opacity="0.08"/><circle cx="966.97" cy="620.51" r="0.91" fill="#ffffff" fill-opacity="0.14"/><circle cx="700.72" cy="829.38" r="3.13" fill="#ffffff" fill-opacity="0.08"/><circle cx="942.91" cy="442.39" r="3.50" fill="#ffffff" fill-opacity="0.06"/><circle cx="929.01" cy="263.11" r="4.10" fill="#ffffff" fill-opacity="0.12"/><circle cx="299.90" cy="603.17" r="1.56" fill="#ffffff" fill-opacity="0.10"/><circle cx="685.41" cy="18.30" r="2.66" fill="#ffffff" fill-opacity="0.12"/><circle cx="499.50" cy="738.78" r="2.18" fill="#ffffff" fill-opacity="0.15"/><circle cx="95.71" cy="54.14" r="1.83" fill="#ffffff" fill-opacity="0.17"/></svg>