<svg xmlns="http://www.w3.org/2000/svg" viewBox="0 0 1024 1024" width="1024" height="1024"><rect width="1024" height="1024" fill="#000000"/><ellipse cx="249.80" cy="361.25" rx="72.15" ry="237.96" fill="rgb(215,249,185)" fill-opacity="0.34" transform="rotate(257.91 249.80 361.25)"/><ellipse cx="505.06" cy="812.76" rx="67.90" ry="85.58" fill="rgb(60,83,18)" fill-opacity="0.27" transform="rotate(134.14 505.06 812.76)"/><ellipse cx="635.17" cy="392.38" rx="123.13" ry="34.75" fill="rgb(204,225,170)" fill-opacity="0.14" transform="rotate(265.54 635.17 392.38)"/><ellipse cx="531.59" cy="235.35" rx="25.34" ry="182.50" fill="rgb(207,245,202)" fill-opacity="0.13" transform="rotate(193.77 531.59 235.35)"/><ellipse cx="521.97" cy="352.33" rx="150.54" ry="136.34" fill="rgb(93,106,52)" fill-opacity="0.31" transform="rotate(51.31 521.97 352.33)"/><ellipse cx="624.60" cy="375.72" rx="167.51" ry="103.92" fill="rgb(139,157,133)" fill-opacity="0.49" transform="rotate(185.63 624.60 375.72)"/><ellipse cx="516.34" cy="859.42" rx="55.92" ry="28.87" fill="rgb(194,211,150)" fill-opacity="0.38" transform="rotate(324.04 516.34 859.42)"/><ellipse cx="619.29" cy="762.06" rx="199.81" ry="108.00" fill="rgb(142,145,104)" fill-opacity="0.27" transform="rotate(351.86 619.29 762.06)"/><ellipse cx="868.18" cy="689.12" rx="162.16" ry="164.22" fill="rgb(215,233,170)" fill-opacity="0.16" transform="rotate(86.06 868.18 689.12)"/><ellipse cx="600.36" cy="622.14" rx="118.09" ry="93.43" fill="rgb(156,185,133)" fill-opacity="0.45" transform="rotate(320.33 600.36 622.14)"/><ellipse cx="705.74" cy="298.22" rx="189.35" ry="141.52" fill="rgb(61,67,18)" fill-opacity="0.40" transform="rotate(96.30 705.74 298.22)"/><path d="M 123.69 316.44 Q 721.68 836.77 831.42 314.98" fill="none" stroke="rgb(209,209,209)" stroke-opacity="0.45" stroke-width="7.47" stroke-linecap="round"/><path d="M 677.91 116.30 Q 663.89 409.10 315.55 134.57" fill="none" stroke="rgb(173,173,173)" stroke-opacity="0.45" stroke-width="2.43" stroke-linecap="round"/><path d="M 92.27 886.50 Q 922.92 1023.40 210.40 624.26" fill="none" stroke="rgb(132,132,132)" stroke-opacity="0.41" stroke-width="4.77" stroke-linecap="round"/><path d="M 16.29 530.76 Q 773.85 997.46 736.52 648.83" fill="none" stroke="rgb(135,135,135)" stroke-opacity="0.34" stroke-width="1.83" stroke-linecap="round"/><path d="M 1021.54 152.33 Q 284.14 242.89 164.53 216.13" fill="none" stroke="rgb(158,158,158)" stroke-opacity="0.25" stroke-width="2.89" stroke-linecap="round"/><circle cx="393.08" cy="379.64" r="1.83" fill="#ffffff" fill-opacity="0.18"/><circle cx="870.93" cy="847.96" r="1.88" fill="#ffffff" fill-opacity="0.18"/><circle cx="512.28" cy="391.96" r="1.58" fill="#ffffff" fill-opacity="0.18"/><circle cx="964.35" cy="187.25" r="4.49" fill="#ffffff" fill-opacity="0.15"/><circle cx="134.10" cy="694.14" r="0.59" fill="#ffffff" fill-opacity="0.17"/><circle cx="406.14" cy="999.13" r="2.80" fill="#ffffff" fill-opacity="0.06"/><circle cx="58.88" cy="124.92" r="0.69" fill="#ffffff" fill-opacity="0.12"/><circle cx="641.15" cy="593.19" r="1.91" fill="#ffffff" fill-opacity="0.19"/><circle cx="661.17" cy="377.93" r="4.18" fill="#ffffff" fill-opacity="0.13"/><circle cx="1016.01" cy="69.77" r="1.42" fill="#ffffff" fill-opacity="0.11"/><circle cx="230.86" cy="653.69" r="1.17" fill="#ffffff" fill-opacity="0.14"/><circle cx="266.06" cy="497.78" r="1.56" fill="#ffffff" fill-opacity="0.08"/><circle cx="672.07" cy="193.87" r="0.85" fill="#ffffff" fill-opacity="0.15"/><circle cx="322.68" cy="641.06" r="2.08" fill="#ffffff" fill-opacity="0.13"/><circle cx="648.42" cy="754.29" r="1.06" fill="#ffffff" fill-opacity="0.16"/><circle cx="1003.75" cy="995.56" r="3.50" fill="#ffffff" fill-opacity="0.06"/><circle cx="336.14" cy="680.15" r="3.78" fill="#ffffff" fill-opacity="0.06"/><circle cx="308.61" cy="128.61" r="2.37" fill="#ffffff" fill-opacity="0.07"/><circle cx="395.64" cy="738.55" r="0.70" fill="#ffffff" fill-opacity="0.17"/><circle cx="239.28" cy="985.23" r="4.43" fill="#ffffff" fill-opacity="0.17"/><circle cx="878.25" cy="443.72" r="3.51" fill="#ffffff" fill-opacity="0.07"/><circle cx="142.19" cy="661.57" r="2.24" fill="#ffffff" fill-opacity="0.06"/><circle cx="551.04" cy="504.64" r="2.66" fill="#ffffff" fill-opacity="0.10"/><circle cx="797.00" cy="977.44" r="2.35" fill="#ffffff" fill-opacity="0.18"/><circle cx="193.62" cy="101.11" r="3.08" fill="#ffffff" fill-opacity="0.15"/><circle cx="491.57" cy="279.31" r="2.54" fill="#ffffff" fill-opacity="0.11"/><circle cx="285.50" cy="380.90" r="0.81" fill="#ffffff" fill-opacity="0.08"/><circle cx="171.24" cy="390.35" r="2.87" fill="#ffffff" fill-opacity="0.08"/><circle cx="748.91" cy="303.12" r="3.41" fill="#ffffff" fill-opacity="0.09"/><circle cx="368.99" cy="619.67" r="4.07" fill="#ffffff" fill-opacity="0.14"/><circle cx="132.35" cy="872.35" r="1.25" fill="#ffffff" fill-opacity="0.10"/><circle cx="703.34" cy="673.46" r="3.09" fill="#ffffff" fill-opacity="0.08"/><circle cx="733.80" cy="240.51" r="4.43" fill="#ffffff" fill-opacity="0.14"/><circle cx="470.20" cy="270.95" r="3.86" fill="#ffffff" fill-opacity="0.15"/><circle cx="382.18" cy="899.21" r="4.05" fill="#ffffff" fill-opacity="0.13"/><circle cx="183.37" cy="933.09" r="1.10" fill="#ffffff" fill-opacity="0.11"/></svg>