<svg xmlns="http://www.w3.org/2000/svg" viewBox="0 0 1024 1024" width="1024" height="1024"><rect width="1024" height="1024" fill="#000000"/><ellipse cx="648.32" cy="496.85" rx="201.64" ry="165.15" fill="rgb(33,52,0)" fill-opacity="0.32" transform="rotate(326.22 648.32 496.85)"/><ellipse cx="487.26" cy="163.26" rx="130.12" ry="95.03" fill="rgb(143,147,133)" fill-opacity="0.13" transform="rotate(233.87 487.26 163.26)"/><ellipse cx="175.17" cy="167.78" rx="190.05" ry="89.13" fill="rgb(220,255,211)" fill-opacity="0.45" transform="rotate(218.14 175.17 167.78)"/><ellipse cx="772.99" cy="260.30" rx="99.15" ry="234.11" fill="rgb(143,163,123)" fill-opacity="0.48" transform="rotate(127.62 772.99 260.30)"/><ellipse cx="302.75" cy="839.21" rx="203.48" ry="114.14" fill="rgb(28,38,21)" fill-opacity="0.20" transform="rotate(293.70 302.75 839.21)"/><ellipse cx="535.19" cy="233.69" rx="142.39" ry="142.67" fill="rgb(49,79,22)" fill-opacity="0.12" transform="rotate(14.42 535.19 233.69)"/><ellipse cx="606.85" cy="869.91" rx="110.82" ry="48.10" fill="rgb(217,255,210)" fill-opacity="0.21" transform="rotate(90.95 606.85 869.91)"/><ellipse cx="699.27" cy="510.74" rx="157.79" ry="185.91" fill="rgb(111,129,100)" fill-opacity="0.19" transform="rotate(136.34 699.27 510.74)"/><ellipse cx="402.56" cy="707.14" rx="100.02" ry="71.97" fill="rgb(33,50,0)" fill-opacity="0.48" transform="rotate(179.39 402.56 707.14)"/><ellipse cx="470.67" cy="144.56" rx="157.58" ry="182.63" fill="rgb(32,38,9)" fill-opacity="0.36" transform="rotate(205.77 470.67 144.56)"/><ellipse cx="862.84" cy="717.14" rx="200.36" ry="185.61" fill="rgb(188,197,160)" fill-opacity="0.16" transform="rotate(127.86 862.84 717.14)"/><ellipse cx="222.29" cy="397.06" rx="155.19" ry="130.18" fill="rgb(193,223,165)" fill-opacity="0.21" transform="rotate(242.95 222.29 397.06)"/><ellipse cx="265.96" cy="575.56" rx="93.40" ry="139.66" fill="rgb(178,200,132)" fill-opacity="0.41" transform="rotate(9.59 265.96 575.56)"/><ellipse cx="581.10" cy="235.95" rx="94.02" ry="52.17" fill="rgb(96,121,67)" fill-opacity="0.14" transform="rotate(239.79 581.10 235.95)"/><path d="M 618.69 497.04 Q 706.45 880.21 486.55 650.86" fill="none" stroke="rgb(189,189,189)" stroke-opacity="0.19" stroke-width="3.13" stroke-linecap="round"/><path d="M 922.67 857.75 Q 351.31 526.58 763.05 904.68" fill="none" stroke="rgb(146,146,146)" stroke-opacity="0.46" stroke-width="6.84" stroke-linecap="round"/><path d="M 669.64 513.15 Q 981.58 74.14 915.97 633.99" fill="none" stroke="rgb(191,191,191)" stroke-opacity="0.43" stroke-width="6.16" stroke-linecap="round"/><path d="M 766.05 352.89 Q 957.48 772.37 15.84 892.32" fill="none" stroke="rgb(168,168,168)" stroke-opacity="0.43" stroke-width="2.47" stroke-linecap="round"/><path d="M 165.84 266.08 Q 464.79 489.04 852.20 62.49" fill="none" stroke="rgb(205,205,205)" stroke-opacity="0.40" stroke-width="3.97" stroke-linecap="round"/><path d="M 627.96 920.44 Q 702.20 541.07 317.83 32.36" fill="none" stroke="rgb(225,225,225)" stroke-opacity="0.19" stroke-width="7.42" stroke-linecap="round"/><circle cx="512.05" cy="267.81" r="4.49" fill="#ffffff" fill-opacity="0.19"/><circle cx="734.91" cy="354.25" r="3.66" fill="#ffffff" fill-opacity="0.18"/><circle cx="46.65" cy="155.40" r="3.88" fill="#ffffff" fill-opacity="0.12"/><circle cx="519.02" cy="358.95" r="4.28" fill="#ffffff" fill-opacity="0.13"/><circle cx="317.89" cy="488.28" r="1.39" fill="#ffffff" fill-opacity="0.17"/><circle cx="454.52" cy="649.34" r="2.73" fill="#ffffff" fill-opacity="0.09"/><circle cx="872.59" cy="742.31" r="4.34" fill="#ffffff" fill-opacity="0.07"/><circle cx="988.48" cy="242.10" r="3.63" fill="#ffffff" fill-opacity="0.07"/><circle cx="463.04" cy="431.98" r="2.53" fill="#ffffff" fill-opacity="0.06"/><circle cx="39.31" cy="548.12" r="0.57" fill="#ffffff" fill-opacity="0.09"/><circle cx="7.14" cy="583.66" r="2.54" fill="#ffffff" fill-opacity="0.18"/><circle cx="3.72" cy="519.09" r="3.90" fill="#ffffff" fill-opacity="0.07"/><circle cx="155.27" cy="451.62" r="4.16" fill="#ffffff" fill-opacity="0.05"/><circle cx="447.44" cy="1022.51" r="1.67" fill="#ffffff" fill-opacity="0.16"/><circle cx="140.52" cy="569.49" r="2.10" fill="#ffffff" fill-opacity="0.11"/><circle cx="75.50" cy="465.04" r="2.80" fill="#ffffff" fill-opacity="0.16"/><circle cx="950.01" cy="765.52" r="3.12" fill="#ffffff" fill-opacity="0.18"/><circle cx="413.55" cy="791.33" r="0.60" fill="#ffffff" fill-opacity="0.16"/><circle cx="44.62" cy="677.46" r="1.36" fill="#ffffff" fill-opacity="0.11"/><circle cx="328.75" cy="898.19" r="4.20" fill="#ffffff" fill-opacity="0.14"/><circle cx="41.11" cy="951.00" r="1.39" fill="#ffffff" fill-opacity="0.16"/><circle cx="824.61" cy="805.27" r="1.63" fill="#ffffff" fill-opacity="0.18"/><circle cx="567.22" cy="406.57" r="3.12" fill="#ffffff" fill-opacity="0.18"/><circle cx="985.58" cy="868.77" r="0.59" fill="#ffffff" fill-opacity="0.10"/><circle cx="0.85" cy="960.41" r="3.38" fill="#ffffff" fill-opacity="0.08"/><circle cx="279.74" cy="914.04" r="1.51" fill="#ffffff" fill-opacity="0.17"/><circle cx="49.62" cy="14.18" r="1.60" fill="#ffffff" fill-opacity="0.06"/><circle cx="753.24" cy="536.13" r="1.99" fill="#ffffff" fill-opacity="0.18"/><circle cx="1023.10" cy="234.16" r="1.01" fill="#ffffff" fill-opacity="0.14"/><circle cx="142.87" cy="704.31" r="1.65" fill="#ffffff" fill-opacity="0.17"/><circle cx="883.08" cy="650.75" r="2.75" fill="#ffffff" fill-opacity="0.17"/><circle cx="393.76" cy="164.87" r="0.56" fill="#ffffff" fill-opacity="0.12"/><circle cx="679.93" cy="106.49" r="4.39" fill="#ffffff" fill-opacity="0.10"/><circle cx="749.12" cy="309.86" r="3.57" fill="#ffffff" fill-opacity="0.19"/><circle cx="942.48" cy="33.41" r="3.17" fill="#ffffff" fill-opacity="0.15"/><circle cx="507.53" cy="68.28" r="1.49" fill="#ffffff" fill-opacity="0.10"/></svg>