<svg xmlns="http://www.w3.org/2000/svg" viewBox="0 0 1024 1024" width="1024" height="1024"><rect width="1024" height="1024" fill="#000000"/><ellipse cx="451.95" cy="528.46" rx="34.12" ry="112.93" fill="rgb(203,225,178)" fill-opacity="0.37" transform="rotate(117.71 451.95 528.46)"/><ellipse cx="531.20" cy="814.30" rx="30.15" ry="104.80" fill="rgb(46,82,32)" fill-opacity="0.48" transform="rotate(226.43 531.20 814.30)"/><ellipse cx="728.27" cy="355.53" rx="145.56" ry="51.08" fill="rgb(131,157,113)" fill-opacity="0.16" transform="rotate(244.01 728.27 355.53)"/><ellipse cx="656.34" cy="415.42" rx="144.44" ry="204.86" fill="rgb(175,212,139)" fill-opacity="0.33" transform="rotate(210.77 656.34 415.42)"/><ellipse cx="895.93" cy="826.68" rx="83.01" ry="47.58" fill="rgb(146,174,114)" fill-opacity="0.32" transform="rotate(297.15 895.93 826.68)"/><ellipse cx="410.75" cy="781.83" rx="57.45" ry="217.01" fill="rgb(188,197,182)" fill-opacity="0.42" transform="rotate(319.66 410.75 781.83)"/><ellipse cx="569.74" cy="378.90" rx="77.68" ry="71.06" fill="rgb(99,111,94)" fill-opacity="0.44" transform="rotate(47.86 569.74 378.90)"/><ellipse cx="203.60" cy="194.49" rx="97.96" ry="219.15" fill="rgb(77,78,49)" fill-opacity="0.15" transform="rotate(37.73 203.60 194.49)"/><ellipse cx="254.79" cy="386.96" rx="171.07" ry="95.23" fill="rgb(67,77,54)" fill-opacity="0.33" transform="rotate(51.67 254.79 386.96)"/><ellipse cx="605.97" cy="274.70" rx="40.93" ry="179.78" fill="rgb(118,136,104)" fill-opacity="0.33" transform="rotate(89.80 605.97 274.70)"/><ellipse cx="722.57" cy="396.45" rx="193.69" ry="165.88" fill="rgb(166,187,158)" fill-opacity="0.48" transform="rotate(256.38 722.57 396.45)"/><ellipse cx="303.94" cy="463.79" rx="165.86" ry="67.57" fill="rgb(99,130,52)" fill-opacity="0.21" transform="rotate(243.09 303.94 463.79)"/><ellipse cx="695.63" cy="470.97" rx="147.42" ry="141.47" fill="rgb(32,41,20)" fill-opacity="0.23" transform="rotate(160.79 695.63 470.97)"/><ellipse cx="864.47" cy="826.73" rx="194.52" ry="26.86" fill="rgb(113,135,86)" fill-opacity="0.13" transform="rotate(353.80 864.47 826.73)"/><ellipse cx="409.94" cy="529.96" rx="36.14" ry="40.06" fill="rgb(162,194,130)" fill-opacity="0.47" transform="rotate(184.91 409.94 529.96)"/><ellipse cx="842.61" cy="241.35" rx="166.31" ry="228.45" fill="rgb(180,203,175)" fill-opacity="0.35" transform="rotate(231.34 842.61 241.35)"/><ellipse cx="327.57" cy="410.06" rx="185.15" ry="203.14" fill="rgb(75,85,70)" fill-opacity="0.20" transform="rotate(23.30 327.57 410.06)"/><path d="M 776.26 320.83 Q 890.93 296.64 127.79 631.12" fill="none" stroke="rgb(188,188,188)" stroke-opacity="0.23" stroke-width="3.76" stroke-linecap="round"/><path d="M 47.60 654.83 Q 278.73 609.89 300.55 978.45" fill="none" stroke="rgb(199,199,199)" stroke-opacity="0.29" stroke-width="6.44" stroke-linecap="round"/><path d="M 243.98 466.18 Q 212.18 834.89 502.74 595.45" fill="none" stroke="rgb(174,174,174)" stroke-opacity="0.33" stroke-width="2.49" stroke-linecap="round"/><path d="M 85.84 594.59 Q 575.90 421.72 732.43 104.65" fill="none" stroke="rgb(211,211,211)" stroke-opacity="0.38" stroke-width="1.53" stroke-linecap="round"/><path d="M 599.90 282.85 Q 520.96 303.00 559.53 745.97" fill="none" stroke="rgb(133,133,133)" stroke-opacity="0.22" stroke-width="5.30" stroke-linecap="round"/><path d="M 945.44 71.99 Q 947.87 468.90 619.24 655.53" fill="none" stroke="rgb(176,176,176)" stroke-opacity="0.31" stroke-width="5.67" stroke-linecap="round"/><circle cx="433.56" cy="397.09" r="4.42" fill="#ffffff" fill-opacity="0.14"/><circle cx="429.71" cy="957.45" r="3.53" fill="#ffffff" fill-opacity="0.07"/><circle cx="327.79" cy="106.68" r="1.32" fill="#ffffff" fill-opacity="0.06"/><circle cx="249.04" cy="246.68" r="1.45" fill="#ffffff" fill-opacity="0.06"/><circle cx="927.73" cy="888.16" r="2.80" fill="#ffffff" fill-opacity="0.09"/><circle cx="366.10" cy="204.16" r="3.16" fill="#ffffff" fill-opacity="0.16"/><circle cx="78.43" cy="48.42" r="3.95" fill="#ffffff" fill-opacity="0.19"/><circle cx="878.86" cy="221.54" r="2.87" fill="#ffffff" fill-opacity="0.06"/><circle cx="410.11" cy="655.31" r="4.05" fill="#ffffff" fill-opacity="0.07"/><circle cx="359.88" cy="412.53" r="3.58" fill="#ffffff" fill-opacity="0.10"/><circle cx="689.74" cy="901.30" r="3.68" fill="#ffffff" fill-opacity="0.12"/><circle cx="506.50" cy="590.96" r="2.65" fill="#ffffff" fill-opacity="0.08"/><circle cx="845.82" cy="709.72" r="0.57" fill="#ffffff" fill-opacity="0.06"/><circle cx="926.30" cy="795.70" r="0.75" fill="#ffffff" fill-opacity="0.05"/><circle cx="278.65" cy="116.95" r="2.79" fill="#ffffff" fill-opacity="0.19"/><circle cx="447.03" cy="761.31" r="4.16" fill="#ffffff" fill-opacity="0.16"/><circle cx="149.16" cy="785.19" r="2.61" fill="#ffffff" fill-opacity="0.17"/><circle cx="495.36" cy="622.91" r="3.03" fill="#ffffff" fill-opacity="0.11"/><circle cx="161.32" cy="284.16" r="3.95" fill="#ffffff" fill-opacity="0.19"/><circle cx="795.38" cy="846.43" r="1.79" fill="#ffffff" fill-opacity="0.09"/><circle cx="148.05" cy="500.07" r="2.70" fill="#ffffff" fill-opacity="0.10"/><circle cx="513.01" cy="478.82" r="2.36" fill="#ffffff" fill-opacity="0.15"/><circle cx="929.23" cy="423.55" r="4.37" fill="#ffffff" fill-opacity="0.06"/><circle cx="136.56" cy="531.50" r="2.77" fill="#ffffff" fill-opacity="0.07"/><circle cx="246.13" cy="52.14" r="2.85" fill="#ffffff" fill-opacity="0.15"/><circle cx="833.37" cy="619.87" r="2.72" fill="#ffffff" fill-opacity="0.13"/><circle cx="455.71" cy="854.52" r="2.04" fill="#ffffff" fill-opacity="0.18"/><circle cx="625.06" cy="30.62" r="3.77" fill="#ffffff" fill-opacity="0.08"/><circle cx="588.32" cy="42.20" r="2.84" fill="#ffffff" fill-opacity="0.16"/><circle cx="526.96" cy="335.11" r="1.37" fill="#ffffff" fill-opacity="0.05"/><circle cx="707.37" cy="216.64" r="1.76" fill="#ffffff" fill-opacity="0.18"/><circle cx="157.11" cy="323.96" r="0.61" fill="#ffffff" fill-opacity="0.18"/><circle cx="883.74" cy="891.11" r="3.44" fill="#ffffff" fill-opacity="0.08"/><circle cx="600.30" cy="672.87" r="1.91" fill="#ffffff" fill-opacity="0.17"/><circle cx="657.08" cy="938.88" r="1.01" fill="#ffffff" fill-opacity="0.11"/><circle cx="645.41" cy="594.26" r="4.08" fill="#ffffff" fill-opacity="0.10"/></svg>