<svg xmlns="http://www.w3.org/2000/svg" viewBox="0 0 1024 1024" width="1024" height="1024"><rect width="1024" height="1024" fill="#000000"/><ellipse cx="657.66" cy="788.49" rx="53.47" ry="44.81" fill="rgb(100,131,95)" fill-opacity="0.33" transform="rotate(264.11 657.66 788.49)"/><ellipse cx="696.04" cy="285.01" rx="215.40" ry="96.80" fill="rgb(70,88,43)" fill-opacity="0.19" transform="rotate(4.40 696.04 285.01)"/><ellipse cx="303.67" cy="489.08" rx="224.32" ry="117.82" fill="rgb(50,65,32)" fill-opacity="0.36" transform="rotate(168.75 303.67 489.08)"/><ellipse cx="247.38" cy="837.29" rx="100.62" ry="97.21" fill="rgb(173,195,167)" fill-opacity="0.19" transform="rotate(132.26 247.38 837.29)"/><ellipse cx="495.79" cy="602.05" rx="57.94" ry="172.58" fill="rgb(70,80,55)" fill-opacity="0.25" transform="rotate(230.72 495.79 602.05)"/><ellipse cx="151.59" cy="817.88" rx="195.46" ry="167.69" fill="rgb(32,43,24)" fill-opacity="0.23" transform="rotate(344.43 151.59 817.88)"/><ellipse cx="169.25" cy="445.55" rx="85.27" ry="139.96" fill="rgb(32,45,5)" fill-opacity="0.41" transform="rotate(41.89 169.25 445.55)"/><ellipse cx="515.77" cy="647.30" rx="53.48" ry="138.77" fill="rgb(63,97,62)" fill-opacity="0.18" transform="rotate(159.60 515.77 647.30)"/><ellipse cx="734.10" cy="896.28" rx="102.77" ry="30.33" fill="rgb(82,83,53)" fill-opacity="0.25" transform="rotate(319.02 734.10 896.28)"/><ellipse cx="309.73" cy="708.52" rx="232.09" ry="232.97" fill="rgb(65,102,53)" fill-opacity="0.17" transform="rotate(308.18 309.73 708.52)"/><ellipse cx="426.67" cy="340.35" rx="119.55" ry="137.44" fill="rgb(162,188,159)" fill-opacity="0.15" transform="rotate(284.55 426.67 340.35)"/><ellipse cx="472.73" cy="260.80" rx="202.24" ry="208.42" fill="rgb(87,125,40)" fill-opacity="0.20" transform="rotate(240.81 472.73 260.80)"/><ellipse cx="893.41" cy="416.97" rx="101.13" ry="152.72" fill="rgb(116,118,77)" fill-opacity="0.16" transform="rotate(306.52 893.41 416.97)"/><ellipse cx="435.44" cy="544.11" rx="196.54" ry="48.97" fill="rgb(162,197,157)" fill-opacity="0.23" transform="rotate(284.90 435.44 544.11)"/><ellipse cx="388.53" cy="470.83" rx="99.63" ry="189.06" fill="rgb(99,113,57)" fill-opacity="0.38" transform="rotate(106.43 388.53 470.83)"/><ellipse cx="609.48" cy="120.53" rx="218.38" ry="40.20" fill="rgb(157,185,149)" fill-opacity="0.48" transform="rotate(146.76 609.48 120.53)"/><ellipse cx="491.69" cy="608.64" rx="188.83" ry="169.93" fill="rgb(31,47,0)" fill-opacity="0.26" transform="rotate(208.80 491.69 608.64)"/><path d="M 641.28 618.26 Q 842.58 273.56 64.59 394.15" fill="none" stroke="rgb(181,181,181)" stroke-opacity="0.51" stroke-width="2.32" stroke-linecap="round"/><path d="M 350.90 631.17 Q 773.19 695.53 474.90 635.70" fill="none" stroke="rgb(126,126,126)" stroke-opacity="0.47" stroke-width="6.69" stroke-linecap="round"/><path d="M 838.79 733.49 Q 134.89 581.79 401.08 667.66" fill="none" stroke="rgb(176,176,176)" stroke-opacity="0.46" stroke-width="5.43" stroke-linecap="round"/><path d="M 808.88 160.76 Q 932.06 668.95 897.84 841.23" fill="none" stroke="rgb(234,234,234)" stroke-opacity="0.47" stroke-width="3.46" stroke-linecap="round"/><path d="M 301.00 28.49 Q 397.04 232.01 982.85 532.75" fill="none" stroke="rgb(210,210,210)" stroke-opacity="0.34" stroke-width="7.50" stroke-linecap="round"/><circle cx="15.15" cy="658.17" r="3.72" fill="#ffffff" fill-opacity="0.13"/><circle cx="304.76" cy="89.04" r="2.35" fill="#ffffff" fill-opacity="0.15"/><circle cx="107.01" cy="653.31" r="0.61" fill="#ffffff" fill-opacity="0.08"/><circle cx="60.35" cy="224.35" r="3.25" fill="#ffffff" fill-opacity="0.13"/><circle cx="843.88" cy="947.15" r="0.86" fill="#ffffff" fill-opacity="0.16"/><circle cx="406.12" cy="589.52" r="4.13" fill="#ffffff" fill-opacity="0.10"/><circle cx="985.43" cy="908.69" r="4.49" fill="#ffffff" fill-opacity="0.05"/><circle cx="330.40" cy="891.05" r="2.37" fill="#ffffff" fill-opacity="0.17"/><circle cx="311.30" cy="50.82" r="2.19" fill="#ffffff" fill-opacity="0.05"/><circle cx="395.49" cy="608.97" r="4.18" fill="#ffffff" fill-opacity="0.18"/><circle cx="1008.23" cy="813.88" r="2.42" fill="#ffffff" fill-opacity="0.15"/><circle cx="117.99" cy="882.12" r="1.19" fill="#ffffff" fill-opacity="0.07"/><circle cx="539.38" cy="588.03" r="2.56" fill="#ffffff" fill-opacity="0.07"/><circle cx="266.37" cy="742.39" r="1.46" fill="#ffffff" fill-opacity="0.10"/><circle cx="393.56" cy="415.35" r="2.28" fill="#ffffff" fill-opacity="0.17"/><circle cx="751.65" cy="744.22" r="4.33" fill="#ffffff" fill-opacity="0.07"/><circle cx="206.81" cy="206.47" r="0.80" fill="#ffffff" fill-opacity="0.10"/><circle cx="854.07" cy="374.82" r="3.02" fill="#ffffff" fill-opacity="0.10"/><circle cx="266.79" cy="516.13" r="1.78" fill="#ffffff" fill-opacity="0.13"/><circle cx="940.71" cy="553.86" r="4.46" fill="#ffffff" fill-opacity="0.13"/><circle cx="42.12" cy="361.32" r="4.06" fill="#ffffff" fill-opacity="0.05"/><circle cx="50.50" cy="688.88" r="4.26" fill="#ffffff" fill-opacity="0.14"/><circle cx="562.16" cy="169.07" r="1.06" fill="#ffffff" fill-opacity="0.18"/><circle cx="370.94" cy="832.43" r="0.67" fill="#ffffff" fill-opacity="0.10"/><circle cx="886.60" cy="559.76" r="3.47" fill="#ffffff" fill-opacity="0.17"/><circle cx="18.69" cy="981.06" r="1.18" fill="#ffffff" fill-opacity="0.14"/><circle cx="26.04" cy="893.99" r="1.50" fill="#ffffff" fill-opacity="0.09"/><circle cx="478.84" cy="430.86" r="1.12" fill="#ffffff" fill-opacity="0.13"/><circle cx="934.87" cy="734.42" r="1.29" fill="#ffffff" fill-opacity="0.18"/><circle cx="449.28" cy="575.02" r="4.01" fill="#ffffff" fill-opacity="0.14"/><circle cx="810.53" cy="715.05" r="2.86" fill="#ffffff" fill-opacity="0.18"/><circle cx="877.96" cy="896.72" r="0.84" fill="#ffffff" fill-opacity="0.12"/><circle cx="683.04" cy="226.84" r="3.35" fill="#ffffff" fill-opacity="0.14"/><circle cx="777.00" cy="838.33" r="0.50" fill="#ffffff" fill-opacity="0.17"/><circle cx="164.53" cy="706.80" r="1.18" fill="#ffffff" fill-opacity="0.17"/><circle cx="252.01" cy="987.09" r="2.51" fill="#ffffff" fill-opacity="0.12"/></svg>