<svg xmlns="http://www.w3.org/2000/svg" viewBox="0 0 1024 1024" width="1024" height="1024"><rect width="1024" height="1024" fill="#000000"/><ellipse cx="243.19" cy="510.05" rx="187.89" ry="51.73" fill="rgb(123,159,115)" fill-opacity="0.36" transform="rotate(311.44 243.19 510.05)"/><ellipse cx="886.02" cy="661.26" rx="228.22" ry="95.28" fill="rgb(105,141,62)" fill-opacity="0.14" transform="rotate(307.21 886.02 661.26)"/><ellipse cx="713.86" cy="711.09" rx="87.58" ry="216.29" fill="rgb(129,148,103)" fill-opacity="0.24" transform="rotate(36.30 713.86 711.09)"/><ellipse cx="323.47" cy="662.61" rx="116.50" ry="120.20" fill="rgb(46,63,32)" fill-opacity="0.34" transform="rotate(359.16 323.47 662.61)"/><ellipse cx="158.71" cy="758.90" rx="138.40" ry="112.03" fill="rgb(191,211,183)" fill-opacity="0.43" transform="rotate(221.26 158.71 758.90)"/><ellipse cx="789.93" cy="514.77" rx="66.94" ry="198.71" fill="rgb(164,168,140)" fill-opacity="0.37" transform="rotate(95.16 789.93 514.77)"/><ellipse cx="173.85" cy="601.69" rx="100.49" ry="31.23" fill="rgb(135,156,117)" fill-opacity="0.24" transform="rotate(194.65 173.85 601.69)"/><ellipse cx="684.37" cy="529.44" rx="32.31" ry="60.70" fill="rgb(83,122,55)" fill-opacity="0.35" transform="rotate(260.57 684.37 529.44)"/><ellipse cx="545.71" cy="539.44" rx="80.77" ry="120.63" fill="rgb(153,153,112)" fill-opacity="0.30" transform="rotate(273.68 545.71 539.44)"/><ellipse cx="353.75" cy="365.78" rx="140.13" ry="174.87" fill="rgb(219,238,173)" fill-opacity="0.16" transform="rotate(124.73 353.75 365.78)"/><ellipse cx="386.31" cy="346.48" rx="240.50" ry="166.96" fill="rgb(111,125,70)" fill-opacity="0.21" transform="rotate(303.71 386.31 346.48)"/><ellipse cx="528.03" cy="720.69" rx="76.85" ry="159.35" fill="rgb(216,220,182)" fill-opacity="0.25" transform="rotate(336.28 528.03 720.69)"/><path d="M 851.17 808.28 Q 746.53 532.40 565.39 775.01" fill="none" stroke="rgb(221,221,221)" stroke-opacity="0.52" stroke-width="4.47" stroke-linecap="round"/><path d="M 295.47 924.22 Q 362.98 389.07 40.55 83.41" fill="none" stroke="rgb(154,154,154)" stroke-opacity="0.39" stroke-width="2.79" stroke-linecap="round"/><path d="M 947.41 185.78 Q 895.21 768.36 112.41 175.27" fill="none" stroke="rgb(229,229,229)" stroke-opacity="0.47" stroke-width="3.35" stroke-linecap="round"/><path d="M 634.27 390.13 Q 293.74 401.35 908.26 771.01" fill="none" stroke="rgb(200,200,200)" stroke-opacity="0.23" stroke-width="3.23" stroke-linecap="round"/><path d="M 169.19 743.25 Q 633.19 947.18 487.04 700.88" fill="none" stroke="rgb(130,130,130)" stroke-opacity="0.33" stroke-width="7.08" stroke-linecap="round"/><path d="M 499.67 583.17 Q 338.11 58.73 236.54 356.35" fill="none" stroke="rgb(234,234,234)" stroke-opacity="0.20" stroke-width="6.12" stroke-linecap="round"/><circle cx="197.70" cy="324.65" r="1.69" fill="#ffffff" fill-opacity="0.08"/><circle cx="402.90" cy="212.43" r="3.12" fill="#ffffff" fill-opacity="0.11"/><circle cx="314.08" cy="928.15" r="3.22" fill="#ffffff" fill-opacity="0.09"/><circle cx="790.25" cy="571.69" r="3.13" fill="#ffffff" fill-opacity="0.07"/><circle cx="498.93" cy="149.57" r="1.52" fill="#ffffff" fill-opacity="0.11"/><circle cx="714.01" cy="728.97" r="1.02" fill="#ffffff" fill-opacity="0.14"/><circle cx="290.80" cy="356.96" r="1.24" fill="#ffffff" fill-opacity="0.16"/><circle cx="678.29" cy="722.00" r="2.08" fill="#ffffff" fill-opacity="0.18"/><circle cx="775.12" cy="925.24" r="1.86" fill="#ffffff" fill-opacity="0.05"/><circle cx="211.11" cy="247.98" r="2.76" fill="#ffffff" fill-opacity="0.11"/><circle cx="25.83" cy="354.54" r="2.43" fill="#ffffff" fill-opacity="0.18"/><circle cx="271.28" cy="957.62" r="2.77" fill="#ffffff" fill-opacity="0.15"/><circle cx="31.78" cy="629.44" r="1.67" fill="#ffffff" fill-opacity="0.18"/><circle cx="614.93" cy="33.50" r="3.88" fill="#ffffff" fill-opacity="0.12"/><circle cx="388.91" cy="621.02" r="3.24" fill="#ffffff" fill-opacity="0.13"/><circle cx="489.59" cy="699.50" r="3.37" fill="#ffffff" fill-opacity="0.11"/><circle cx="940.53" cy="984.04" r="3.88" fill="#ffffff" fill-opacity="0.11"/><circle cx="682.47" cy="407.68" r="1.11" fill="#ffffff" fill-opacity="0.13"/><circle cx="896.35" cy="866.19" r="4.31" fill="#ffffff" fill-opacity="0.06"/><circle cx="377.71" cy="45.49" r="3.52" fill="#ffffff" fill-opacity="0.11"/><circle cx="120.88" cy="892.75" r="2.72" fill="#ffffff" fill-opacity="0.16"/><circle cx="517.85" cy="74.98" r="1.12" fill="#ffffff" fill-opacity="0.16"/><circle cx="537.32" cy="659.78" r="2.29" fill="#ffffff" fill-opacity="0.09"/><circle cx="488.32" cy="987.03" r="2.12" fill="#ffffff" fill-opacity="0.12"/><circle cx="683.68" cy="1012.88" r="1.61" fill="#ffffff" fill-opacity="0.17"/><circle cx="632.84" cy="943.49" r="2.78" fill="#ffffff" fill-opacity="0.18"/><circle cx="489.08" cy="302.59" r="0.95" fill="#ffffff" fill-opacity="0.05"/><circle cx="854.37" cy="176.92" r="1.06" fill="#ffffff" fill-opacity="0.16"/><circle cx="636.18" cy="55.70" r="1.12" fill="#ffffff" fill-opacity="0.09"/><circle cx="822.85" cy="50.06" r="3.30" fill="#ffffff" fill-opacity="0.18"/><circle cx="894.31" cy="637.48" r="1.76" fill="#ffffff" fill-opacity="0.07"/><circle cx="173.58" cy="61.26" r="4.01" fill="#ffffff" fill-opacity="0.18"/><circle cx="579.62" cy="834.62" r="1.32" fill="#ffffff" fill-opacity="0.17"/><circle cx="953.77" cy="267.61" r="2.71" fill="#ffffff" fill-opacity="0.10"/><circle cx="356.04" cy="649.16" r="3.39" fill="#ffffff" fill-opacity="0.18"/><circle cx="408.33" cy="1021.00" r="4.27" fill="#ffffff" fill-opacity="0.10"/></svg>